<svg xmlns="http://www.w3.org/2000/svg" viewBox="0 0 640 760" width="640" height="760"><defs><filter id="sh" x="-20%" y="-20%" width="140%" height="140%"><feGaussianBlur in="SourceAlpha" stdDeviation="10"/><feOffset dx="8" dy="14"/><feComponentTransfer><feFuncA type="linear" slope=".28"/></feComponentTransfer><feMerge><feMergeNode/><feMergeNode in="SourceGraphic"/></feMerge></filter><linearGradient id="bk" x1="0" x2="1"><stop offset="0" stop-color="#b9bec4"/><stop offset=".35" stop-color="#f4f6f7"/><stop offset=".7" stop-color="#dfe3e7"/><stop offset="1" stop-color="#a9afb6"/></linearGradient><linearGradient id="lb" x1="0" x2="1"><stop offset="0" stop-color="#196c2d"/><stop offset=".45" stop-color="#439f35"/><stop offset="1" stop-color="#196c2d"/></linearGradient></defs><g filter="url(#sh)"><path d="M170,250 L192,620 A128.0,34 0 0 0 448,620 L470,250 Z" fill="url(#bk)"/><path d="M176,340 L183,510 A137.0,30 0 0 0 457,510 L464,340 A144.0,32 0 0 1 176,340 Z" fill="url(#lb)"/><path d="M320 378 C300 408 288 426 288 446 a32 32 0 0 0 64 0 C352 426 340 408 320 378 Z" fill="#fff"/><path d="M304 448 a17 17 0 0 0 12 17" fill="none" stroke="#c1e834" stroke-width="5" stroke-linecap="round"/><path d="M182,362 Q320 390 458,362" fill="none" stroke="#c1e834" stroke-width="4" opacity=".8"/><path d="M186,494 Q320 522 454,494" fill="none" stroke="#c1e834" stroke-width="4" opacity=".8"/><ellipse cx="320" cy="250" rx="158.0" ry="40" fill="#e9ecef" stroke="#b9bec4" stroke-width="2"/><ellipse cx="320" cy="242" rx="140.0" ry="30" fill="#f7f8f9"/><path d="M174,280 C160,80 480,80 466,280" fill="none" stroke="#9aa1a8" stroke-width="9" stroke-linecap="round"/></g><g filter="url(#sh)"><ellipse cx="313" cy="699" rx="10.7" ry="6.4" transform="rotate(91 313 699)" fill="#fbf8e6" stroke="#c9bf8f" stroke-width="1"/><ellipse cx="166" cy="709" rx="8.9" ry="6.8" transform="rotate(34 166 709)" fill="#ece4bb" stroke="#c9bf8f" stroke-width="1"/><ellipse cx="513" cy="698" rx="7.2" ry="7.9" transform="rotate(174 513 698)" fill="#fbf8e6" stroke="#c9bf8f" stroke-width="1"/><ellipse cx="474" cy="697" rx="9.5" ry="7.5" transform="rotate(11 474 697)" fill="#f4efd2" stroke="#c9bf8f" stroke-width="1"/><ellipse cx="77" cy="672" rx="8.8" ry="7.5" transform="rotate(93 77 672)" fill="#fbf8e6" stroke="#c9bf8f" stroke-width="1"/><ellipse cx="108" cy="691" rx="8.6" ry="6.7" transform="rotate(168 108 691)" fill="#f4efd2" stroke="#c9bf8f" stroke-width="1"/><ellipse cx="99" cy="701" rx="8.6" ry="7.5" transform="rotate(70 99 701)" fill="#f4efd2" stroke="#c9bf8f" stroke-width="1"/><ellipse cx="534" cy="634" rx="7.8" ry="7.7" transform="rotate(85 534 634)" fill="#fbf8e6" stroke="#c9bf8f" stroke-width="1"/><ellipse cx="412" cy="713" rx="8.1" ry="5.3" transform="rotate(60 412 713)" fill="#ece4bb" stroke="#c9bf8f" stroke-width="1"/><ellipse cx="94" cy="703" rx="7.7" ry="6.7" transform="rotate(81 94 703)" fill="#f4efd2" stroke="#c9bf8f" stroke-width="1"/><ellipse cx="612" cy="697" rx="8.7" ry="6.2" transform="rotate(71 612 697)" fill="#f4efd2" stroke="#c9bf8f" stroke-width="1"/><ellipse cx="60" cy="706" rx="10.9" ry="6.8" transform="rotate(180 60 706)" fill="#f4efd2" stroke="#c9bf8f" stroke-width="1"/><ellipse cx="538" cy="691" rx="7.4" ry="8.0" transform="rotate(38 538 691)" fill="#ece4bb" stroke="#c9bf8f" stroke-width="1"/><ellipse cx="65" cy="684" rx="10.3" ry="6.2" transform="rotate(13 65 684)" fill="#f4efd2" stroke="#c9bf8f" stroke-width="1"/><ellipse cx="314" cy="735" rx="8.9" ry="6.7" transform="rotate(156 314 735)" fill="#f4efd2" stroke="#c9bf8f" stroke-width="1"/><ellipse cx="188" cy="694" rx="9.9" ry="5.5" transform="rotate(113 188 694)" fill="#fbf8e6" stroke="#c9bf8f" stroke-width="1"/><ellipse cx="170" cy="723" rx="10.5" ry="6.8" transform="rotate(76 170 723)" fill="#f4efd2" stroke="#c9bf8f" stroke-width="1"/><ellipse cx="121" cy="679" rx="8.0" ry="7.2" transform="rotate(70 121 679)" fill="#ece4bb" stroke="#c9bf8f" stroke-width="1"/><ellipse cx="521" cy="688" rx="8.2" ry="5.5" transform="rotate(130 521 688)" fill="#f4efd2" stroke="#c9bf8f" stroke-width="1"/><ellipse cx="131" cy="677" rx="9.6" ry="6.8" transform="rotate(13 131 677)" fill="#f4efd2" stroke="#c9bf8f" stroke-width="1"/><ellipse cx="574" cy="649" rx="7.1" ry="5.8" transform="rotate(80 574 649)" fill="#f4efd2" stroke="#c9bf8f" stroke-width="1"/><ellipse cx="86" cy="656" rx="9.1" ry="7.9" transform="rotate(17 86 656)" fill="#f4efd2" stroke="#c9bf8f" stroke-width="1"/><ellipse cx="559" cy="720" rx="9.6" ry="7.1" transform="rotate(105 559 720)" fill="#f4efd2" stroke="#c9bf8f" stroke-width="1"/><ellipse cx="390" cy="728" rx="8.9" ry="6.1" transform="rotate(56 390 728)" fill="#f4efd2" stroke="#c9bf8f" stroke-width="1"/><ellipse cx="72" cy="687" rx="8.9" ry="7.2" transform="rotate(57 72 687)" fill="#f4efd2" stroke="#c9bf8f" stroke-width="1"/><ellipse cx="102" cy="681" rx="9.9" ry="7.7" transform="rotate(133 102 681)" fill="#fbf8e6" stroke="#c9bf8f" stroke-width="1"/><ellipse cx="133" cy="721" rx="8.4" ry="5.3" transform="rotate(85 133 721)" fill="#f4efd2" stroke="#c9bf8f" stroke-width="1"/><ellipse cx="548" cy="670" rx="10.2" ry="7.6" transform="rotate(103 548 670)" fill="#fbf8e6" stroke="#c9bf8f" stroke-width="1"/><ellipse cx="67" cy="635" rx="7.4" ry="5.3" transform="rotate(46 67 635)" fill="#ece4bb" stroke="#c9bf8f" stroke-width="1"/><ellipse cx="472" cy="691" rx="8.8" ry="7.5" transform="rotate(15 472 691)" fill="#fbf8e6" stroke="#c9bf8f" stroke-width="1"/><ellipse cx="77" cy="684" rx="8.9" ry="5.7" transform="rotate(126 77 684)" fill="#ece4bb" stroke="#c9bf8f" stroke-width="1"/><ellipse cx="497" cy="696" rx="8.9" ry="7.7" transform="rotate(66 497 696)" fill="#f4efd2" stroke="#c9bf8f" stroke-width="1"/><ellipse cx="155" cy="718" rx="9.6" ry="6.3" transform="rotate(161 155 718)" fill="#ece4bb" stroke="#c9bf8f" stroke-width="1"/><ellipse cx="415" cy="716" rx="10.0" ry="5.6" transform="rotate(39 415 716)" fill="#f4efd2" stroke="#c9bf8f" stroke-width="1"/><ellipse cx="136" cy="679" rx="10.3" ry="7.5" transform="rotate(128 136 679)" fill="#ece4bb" stroke="#c9bf8f" stroke-width="1"/><ellipse cx="520" cy="645" rx="8.9" ry="7.8" transform="rotate(150 520 645)" fill="#ece4bb" stroke="#c9bf8f" stroke-width="1"/><ellipse cx="410" cy="688" rx="8.3" ry="7.5" transform="rotate(177 410 688)" fill="#ece4bb" stroke="#c9bf8f" stroke-width="1"/><ellipse cx="239" cy="717" rx="8.1" ry="6.8" transform="rotate(122 239 717)" fill="#ece4bb" stroke="#c9bf8f" stroke-width="1"/><ellipse cx="503" cy="638" rx="7.5" ry="6.4" transform="rotate(4 503 638)" fill="#ece4bb" stroke="#c9bf8f" stroke-width="1"/><ellipse cx="86" cy="687" rx="8.8" ry="6.9" transform="rotate(118 86 687)" fill="#ece4bb" stroke="#c9bf8f" stroke-width="1"/><ellipse cx="597" cy="690" rx="7.8" ry="6.4" transform="rotate(32 597 690)" fill="#f4efd2" stroke="#c9bf8f" stroke-width="1"/><ellipse cx="483" cy="686" rx="7.1" ry="5.7" transform="rotate(140 483 686)" fill="#fbf8e6" stroke="#c9bf8f" stroke-width="1"/><ellipse cx="450" cy="687" rx="9.5" ry="7.3" transform="rotate(71 450 687)" fill="#fbf8e6" stroke="#c9bf8f" stroke-width="1"/><ellipse cx="567" cy="639" rx="10.7" ry="7.2" transform="rotate(23 567 639)" fill="#ece4bb" stroke="#c9bf8f" stroke-width="1"/><ellipse cx="170" cy="717" rx="7.0" ry="6.7" transform="rotate(117 170 717)" fill="#fbf8e6" stroke="#c9bf8f" stroke-width="1"/><ellipse cx="506" cy="721" rx="8.9" ry="7.0" transform="rotate(37 506 721)" fill="#fbf8e6" stroke="#c9bf8f" stroke-width="1"/><ellipse cx="545" cy="705" rx="10.7" ry="5.4" transform="rotate(44 545 705)" fill="#ece4bb" stroke="#c9bf8f" stroke-width="1"/><ellipse cx="609" cy="716" rx="9.1" ry="7.4" transform="rotate(58 609 716)" fill="#fbf8e6" stroke="#c9bf8f" stroke-width="1"/><ellipse cx="539" cy="665" rx="7.3" ry="6.3" transform="rotate(99 539 665)" fill="#ece4bb" stroke="#c9bf8f" stroke-width="1"/><ellipse cx="513" cy="641" rx="10.2" ry="5.5" transform="rotate(60 513 641)" fill="#f4efd2" stroke="#c9bf8f" stroke-width="1"/></g></svg>